<?xml version="1.0" encoding="utf-8"?>
<!-- Generator: Adobe Illustrator 24.2.0, SVG Export Plug-In . SVG Version: 6.00 Build 0)  -->
<svg version="1.1" id="Camada_1" xmlns="http://www.w3.org/2000/svg" xmlns:xlink="http://www.w3.org/1999/xlink" x="0px" y="0px"
	 viewBox="0 0 142.8 135" style="enable-background:new 0 0 142.8 135;" xml:space="preserve">
<style type="text/css">
	.st0{opacity:0.5;fill:#B6FFFD;enable-background:new    ;}
	.st1{fill-rule:evenodd;clip-rule:evenodd;fill:#5CB9FF;}
	.st2{fill:#4AF6FF;}
	.st3{fill-rule:evenodd;clip-rule:evenodd;fill:#4AF6FF;}
	.st4{fill:#FFFFFF;}
</style>
<g id="Camada_2_1_">
	<g id="Camada_1-2">
		<circle class="st0" cx="75.3" cy="67.5" r="67.5"/>
		<path class="st1" d="M70.2,66.5c-11.8,0-21.3,8.4-21.3,18.7l0,0c0,10.4,9.6,18.8,21.3,18.8h31.5c1.2,0,2.3-0.1,3.4-0.3l6.1,5.2
			c0.2,0.1,0.4,0.2,0.6,0.2c0.5,0,0.9-0.3,0.9-0.8v-7.1c6.2-3.3,10.3-9.2,10.3-16l0,0c0-10.3-9.6-18.7-21.3-18.7L70.2,66.5z"/>
		<path class="st2" d="M75.4,21.7H30.5C13.6,21.7,0,33.6,0,48.4s13.6,26.7,30.5,26.7h44.9c16.8,0,30.5-12,30.5-26.7
			S92.2,21.7,75.4,21.7z"/>
		<path class="st3" d="M14.7,67.4v14c0,0.7,0.6,1.2,1.3,1.1c0,0,0,0,0,0c0.3,0,0.6-0.1,0.9-0.3l11.7-9.9L14.7,67.4z"/>
		<path class="st4" d="M32.5,51.7c2.7,0,4.9-1.9,4.9-4.3s-2.2-4.3-4.9-4.3s-4.9,1.9-4.9,4.3S29.8,51.7,32.5,51.7z"/>
		<path class="st4" d="M52.7,51.7c2.7,0,4.9-1.9,4.9-4.3s-2.2-4.3-4.9-4.3s-4.9,1.9-4.9,4.3S50,51.7,52.7,51.7z"/>
		<path class="st4" d="M73.3,51.7c2.7,0,4.9-1.9,4.9-4.3s-2.2-4.3-4.9-4.3s-4.9,1.9-4.9,4.3S70.6,51.7,73.3,51.7z"/>
	</g>
</g>
</svg>
