<?xml version="1.0" encoding="utf-8"?>
<!-- Generator: Adobe Illustrator 24.2.0, SVG Export Plug-In . SVG Version: 6.00 Build 0)  -->
<svg version="1.1" xmlns="http://www.w3.org/2000/svg" xmlns:xlink="http://www.w3.org/1999/xlink" x="0px" y="0px"
	 viewBox="0 0 313 404" style="enable-background:new 0 0 313 404;" xml:space="preserve">
<style type="text/css">
	.st0{opacity:0.8;fill:url(#SVGID_1_);enable-background:new    ;}
	.st1{opacity:0.95;fill:url(#SVGID_2_);enable-background:new    ;}
	.st2{opacity:0.6;fill:url(#SVGID_3_);enable-background:new    ;}
	.st3{opacity:0.65;fill:url(#SVGID_4_);enable-background:new    ;}
	.st4{opacity:0.75;fill:url(#SVGID_5_);enable-background:new    ;}
	.st5{fill:#5CB9FF;}
	.st6{opacity:0.15;fill:#FEFEFE;enable-background:new    ;}
	.st7{opacity:0.75;fill:url(#SVGID_6_);enable-background:new    ;}
	.st8{fill:#4AF6FF;}
	.st9{opacity:0.85;fill:url(#SVGID_7_);enable-background:new    ;}
	.st10{opacity:0.85;fill:url(#SVGID_8_);enable-background:new    ;}
	.st11{opacity:0.65;fill:url(#SVGID_9_);enable-background:new    ;}
	.st12{opacity:0.75;fill:url(#SVGID_10_);enable-background:new    ;}
</style>
<g id="Camada_2">
</g>
<g id="Camada_1">
	
		<linearGradient id="SVGID_1_" gradientUnits="userSpaceOnUse" x1="33.6098" y1="306.213" x2="144.8322" y2="225.1013" gradientTransform="matrix(1 0 0 -1 0 404)">
		<stop  offset="0" style="stop-color:#FFFFFF"/>
		<stop  offset="1" style="stop-color:#FFFFFF;stop-opacity:0"/>
	</linearGradient>
	<path class="st0" d="M146.6,123.8c27.4-16,50-1,54,33.4c0.7,6-3.8,13.8-9.4,17.1l-89.3,52.2c-5.5,3.2-10.1,0.6-9.4-6.2
		C96.6,181.3,119.2,139.8,146.6,123.8z"/>
	
		<linearGradient id="SVGID_2_" gradientUnits="userSpaceOnUse" x1="90.2814" y1="384.1005" x2="201.5035" y2="302.9891" gradientTransform="matrix(1 0 0 -1 0 404)">
		<stop  offset="0" style="stop-color:#FFFFFF"/>
		<stop  offset="1" style="stop-color:#FFFFFF;stop-opacity:0"/>
	</linearGradient>
	<path class="st1" d="M116.1,79.1c0,23.8,13.8,35.1,30.7,25.1c17-9.9,30.7-37.2,30.7-61S163.8,8.1,146.8,18
		C129.8,28,116.1,55.3,116.1,79.1z"/>
	
		<linearGradient id="SVGID_3_" gradientUnits="userSpaceOnUse" x1="16.0157" y1="320.5011" x2="127.2377" y2="239.389" gradientTransform="matrix(1 0 0 -1 0 404)">
		<stop  offset="0" style="stop-color:#FFFFFF"/>
		<stop  offset="1" style="stop-color:#FFFFFF;stop-opacity:0"/>
	</linearGradient>
	<path class="st2" d="M129,109.6c27.4-16,50-1,54,33.4c0.7,6-3.8,13.8-9.4,17.1l-89.3,52.2c-5.5,3.2-10.1,0.6-9.4-6.2
		C79,167,101.6,125.5,129,109.6z"/>
	
		<linearGradient id="SVGID_4_" gradientUnits="userSpaceOnUse" x1="72.6869" y1="398.3885" x2="183.9086" y2="317.2769" gradientTransform="matrix(1 0 0 -1 0 404)">
		<stop  offset="0" style="stop-color:#FFFFFF"/>
		<stop  offset="1" style="stop-color:#FFFFFF;stop-opacity:0"/>
	</linearGradient>
	<path class="st3" d="M98.5,64.8c0,23.8,13.8,35.1,30.7,25.1s30.7-37.2,30.7-61c0-23.8-13.8-35.1-30.7-25.1
		C112.2,13.7,98.5,41,98.5,64.8z"/>
	
		<linearGradient id="SVGID_5_" gradientUnits="userSpaceOnUse" x1="67.8378" y1="176.4209" x2="85.3031" y2="146.1699" gradientTransform="matrix(1 0 0 -1 0 404)">
		<stop  offset="0" style="stop-color:#FFFFFF"/>
		<stop  offset="1" style="stop-color:#FFFFFF;stop-opacity:0"/>
	</linearGradient>
	<path class="st4" d="M39.3,246.7c0-1.6,0.9-3.1,2.2-3.9l68.4-39.5c3-1.7,6.7,0.4,6.7,3.9v32.6l-77.4,44.7V246.7z"/>
	<path class="st5" d="M101,222c0,3.3,2,4.9,4.4,3.5c2.4-1.4,4.4-5.2,4.4-8.5c0-3.3-2-4.9-4.4-3.5C102.9,214.8,101,218.7,101,222z"/>
	<path class="st6" d="M96.9,220.5L73.6,234v4.8l23.3-13.5L96.9,220.5z"/>
	<path class="st6" d="M96.9,230.3l-49.5,28.6v4.9l49.5-28.6V230.3z"/>
	
		<linearGradient id="SVGID_6_" gradientUnits="userSpaceOnUse" x1="224.9785" y1="222.9927" x2="242.4355" y2="192.7567" gradientTransform="matrix(1 0 0 -1 0 404)">
		<stop  offset="0" style="stop-color:#FFFFFF"/>
		<stop  offset="1" style="stop-color:#FFFFFF;stop-opacity:0"/>
	</linearGradient>
	<path class="st7" d="M196.5,200.1c0-1.6,0.9-3.1,2.2-3.9l68.4-39.5c3-1.7,6.7,0.4,6.7,3.9v32.6l-77.4,44.7V200.1z"/>
	<path class="st8" d="M258.1,175.4c0,3.3,2,4.9,4.4,3.5c2.4-1.4,4.4-5.2,4.4-8.5c0-3.3-2-4.9-4.4-3.5
		C260.1,168.3,258.1,172.1,258.1,175.4z"/>
	<path class="st6" d="M254.1,174.2l-14,8.1v4.9l14-8.1V174.2z"/>
	<path class="st6" d="M254,183.9l-49.5,28.6v4.9l49.5-28.6V183.9z"/>
	
		<linearGradient id="SVGID_7_" gradientUnits="userSpaceOnUse" x1="83.6771" y1="159.451" x2="64.7157" y2="5.699" gradientTransform="matrix(1 0 0 -1 0 404)">
		<stop  offset="0" style="stop-color:#FFFFFF"/>
		<stop  offset="1" style="stop-color:#FFFFFF;stop-opacity:0"/>
	</linearGradient>
	<path class="st9" d="M146.6,249.8c0-3.5-3.7-5.6-6.7-3.9L2.3,325.4c-1.4,0.8-2.2,2.3-2.2,3.9l0,73.8L133.6,326l11,3.6
		c1,0.3,2-0.4,2-1.4L146.6,249.8z"/>
	<path class="st5" d="M116.8,284.9c0,6.3,3.7,9.2,8.3,6.6c4.6-2.7,8.3-9.9,8.3-16.2c0-6.3-3.7-9.2-8.3-6.6
		C120.6,271.3,116.8,278.6,116.8,284.9z"/>
	<path class="st6" d="M108.9,282.4L76.8,301v6.7l32.1-18.5V282.4z"/>
	<path class="st6" d="M108.9,295.9L13,351.3v6.7l95.9-55.4V295.9z"/>
	<path class="st6" d="M108.9,309.3l-75,43.3v6.7l75-43.3V309.3z"/>
	
		<linearGradient id="SVGID_8_" gradientUnits="userSpaceOnUse" x1="198.0241" y1="170.1335" x2="273.7301" y2="110.8725" gradientTransform="matrix(1 0 0 -1 0 404)">
		<stop  offset="0" style="stop-color:#FFFFFF"/>
		<stop  offset="1" style="stop-color:#FFFFFF;stop-opacity:0"/>
	</linearGradient>
	<path class="st10" d="M166.4,266.6c0-1.6,0.9-3.1,2.2-3.9l137.6-79.4c3-1.7,6.7,0.4,6.7,3.9l0,68.6L179.3,333l-10.2,15.1
		c-0.8,1.2-2.7,0.6-2.7-0.8L166.4,266.6z"/>
	<path class="st8" d="M196.2,272.4c0,6.3-3.7,13.5-8.3,16.2c-4.6,2.7-8.3-0.3-8.3-6.6c0-6.3,3.7-13.5,8.3-16.2
		C192.5,263.2,196.2,266.1,196.2,272.4z"/>
	<path class="st6" d="M204.1,260.9l32.1-18.5v6.7l-32.1,18.5V260.9z"/>
	<path class="st6" d="M204.1,274.3l95.9-55.4v6.7L204.1,281L204.1,274.3z"/>
	<path class="st6" d="M204.1,287.7l75-43.3v6.7l-75,43.3V287.7z"/>
	
		<linearGradient id="SVGID_9_" gradientUnits="userSpaceOnUse" x1="242.88" y1="75.4266" x2="265.677" y2="57.4396" gradientTransform="matrix(1 0 0 -1 0 404)">
		<stop  offset="0" style="stop-color:#FFFFFF"/>
		<stop  offset="1" style="stop-color:#FFFFFF;stop-opacity:0"/>
	</linearGradient>
	<path class="st11" d="M252,311.6c-2.6,1.5-4.7,5.1-4.7,8.2v13.3l-8.8,5.1c-2.6,1.5-4.7,5.1-4.7,8.1c0,3,2.1,4.2,4.7,2.7l8.8-5.1
		v13.3c0,3,2.1,4.2,4.7,2.7c2.6-1.5,4.7-5.1,4.7-8.1v-13.3l8.8-5.1c2.6-1.5,4.7-5.1,4.7-8.1c0-3-2.1-4.2-4.7-2.7l-8.8,5.1v-13.3
		C256.7,311.3,254.6,310.1,252,311.6z"/>
	
		<linearGradient id="SVGID_10_" gradientUnits="userSpaceOnUse" x1="54.2102" y1="238.5352" x2="76.2931" y2="226.2282" gradientTransform="matrix(1 0 0 -1 0 404)">
		<stop  offset="0" style="stop-color:#FFFFFF"/>
		<stop  offset="1" style="stop-color:#FFFFFF;stop-opacity:0"/>
	</linearGradient>
	<path class="st12" d="M62.8,141.5l-12.1,23.8c-1.7,3.3-1.4,6.5,0.6,7.3c2,0.8,5-1.3,6.6-4.5l0.1-0.3v26.4c0,3,2.1,4.2,4.7,2.7
		c2.6-1.5,4.7-5.1,4.7-8.1v-26.4l0.1,0.1c1.7,1.3,4.7,0,6.6-3.1c2-3.1,2.3-6.7,0.6-8L62.8,141.5z"/>
</g>
</svg>
