<svg xmlns="http://www.w3.org/2000/svg" xmlns:xlink="http://www.w3.org/1999/xlink" viewBox="0 0 170.44 73.3"><defs><style>.cls-1{fill:none;stroke-width:4.3px;stroke:url(#Gradiente_sem_nome_14);}.cls-2{fill:#f5f5f5;}.cls-3{fill:url(#Gradiente_sem_nome_14-2);}.cls-4{fill:url(#Gradiente_sem_nome_19);}</style><linearGradient id="Gradiente_sem_nome_14" x1="103.99" y1="79.27" x2="164.2" y2="4.72" gradientTransform="matrix(1, 0, 0, -1, 0, 74.3)" gradientUnits="userSpaceOnUse"><stop offset="0" stop-color="#4af6ff"/><stop offset="1" stop-color="#5cb9ff"/></linearGradient><linearGradient id="Gradiente_sem_nome_14-2" x1="127.94" y1="32.77" x2="142.52" y2="32.77" gradientTransform="matrix(1, 0, 0, 1, 0, 0)" xlink:href="#Gradiente_sem_nome_14"/><linearGradient id="Gradiente_sem_nome_19" x1="143.95" y1="29.52" x2="155.74" y2="29.52" gradientUnits="userSpaceOnUse"><stop offset="0" stop-color="#4af6ff"/><stop offset="1" stop-color="#5cb9ff"/></linearGradient></defs><g id="Camada_2" data-name="Camada 2"><g id="Camada_1-2" data-name="Camada 1"><path class="cls-1" d="M95.18,15.05V7.88a5.73,5.73,0,0,1,5.73-5.73h61.65a5.74,5.74,0,0,1,5.73,5.73V48a5.74,5.74,0,0,1-5.73,5.73h-10l3.36,15.65a1.44,1.44,0,0,1-2.38,1.35L138.19,56.63H100.91a5.73,5.73,0,0,1-5.73-5.74V48"/><path class="cls-2" d="M14.7,36a7.28,7.28,0,0,1-1.47,2.36,6,6,0,0,1-2.1,1.45,6.57,6.57,0,0,1-2.49.48,5.19,5.19,0,0,1-2.72-.64,7,7,0,0,1-1.8-1.51v6.22H0V25.45H4.12v2.07A6.38,6.38,0,0,1,6,25.84a5,5,0,0,1,2.69-.66,6.4,6.4,0,0,1,2.47.49,6,6,0,0,1,2.11,1.45,7.3,7.3,0,0,1,1.48,2.36,8.64,8.64,0,0,1,.55,3.21v.05A8.64,8.64,0,0,1,14.7,36Zm-3.57-3.26A4.61,4.61,0,0,0,10.85,31a4.13,4.13,0,0,0-.77-1.29A3.46,3.46,0,0,0,9,28.94a3.36,3.36,0,0,0-2.73,0,3.18,3.18,0,0,0-1.11.81A4.11,4.11,0,0,0,4.35,31a4.61,4.61,0,0,0-.29,1.65v.05a4.61,4.61,0,0,0,.29,1.65,4,4,0,0,0,.76,1.28,3.09,3.09,0,0,0,1.11.82,3.36,3.36,0,0,0,2.73,0,3.35,3.35,0,0,0,1.13-.82,3.92,3.92,0,0,0,.77-1.27,4.55,4.55,0,0,0,.28-1.66Z"/><path class="cls-2" d="M31.82,33.63c0,.15,0,.32,0,.52H21.67a3.5,3.5,0,0,0,1.23,2.13,3.77,3.77,0,0,0,2.32.71,4.47,4.47,0,0,0,1.84-.35,6.09,6.09,0,0,0,1.68-1.14l2.36,2.09a7.39,7.39,0,0,1-2.49,2,7.74,7.74,0,0,1-3.44.72,8.27,8.27,0,0,1-3-.54,6.93,6.93,0,0,1-2.42-1.55,7.29,7.29,0,0,1-1.58-2.37,7.86,7.86,0,0,1-.57-3.05v0a8.13,8.13,0,0,1,.53-2.92,7.27,7.27,0,0,1,1.48-2.42,7,7,0,0,1,2.26-1.62,6.88,6.88,0,0,1,2.91-.6,7.09,7.09,0,0,1,3.14.65,6.48,6.48,0,0,1,2.21,1.75,7.19,7.19,0,0,1,1.3,2.52,10.45,10.45,0,0,1,.42,3v0C31.83,33.32,31.83,33.49,31.82,33.63Zm-5-4.29a2.71,2.71,0,0,0-2.09-.85,2.76,2.76,0,0,0-2.1.84,4.21,4.21,0,0,0-1,2.25h6.2A4,4,0,0,0,26.85,29.34Z"/><path class="cls-2" d="M43.42,29.49a4.23,4.23,0,0,0-3.23,1.25A5.45,5.45,0,0,0,39,34.61V40H34.89V25.45H39v2.93A6,6,0,0,1,40.72,26a4.18,4.18,0,0,1,2.92-.81v4.31Z"/><path class="cls-2" d="M60.31,40.2a5.57,5.57,0,0,1-1.51,2.37,6.21,6.21,0,0,1-2.54,1.36,12.9,12.9,0,0,1-3.54.43A14.63,14.63,0,0,1,49.3,44a12.66,12.66,0,0,1-3-1.13l1.4-3.08a12.46,12.46,0,0,0,2.29,1,8.79,8.79,0,0,0,2.62.35,4.3,4.3,0,0,0,3.13-1,4,4,0,0,0,1-2.95v-.71a7.34,7.34,0,0,1-2,1.74,5.53,5.53,0,0,1-2.74.62,6.73,6.73,0,0,1-2.44-.45A6,6,0,0,1,47.51,37a6.41,6.41,0,0,1-1.42-2.13A7.43,7.43,0,0,1,45.56,32V32a7.08,7.08,0,0,1,.55-2.88,6.59,6.59,0,0,1,1.43-2.13,6.18,6.18,0,0,1,2.06-1.31A6.65,6.65,0,0,1,52,25.18a5.42,5.42,0,0,1,2.76.63,7.79,7.79,0,0,1,1.93,1.54v-1.9h4.12V36.7A10.56,10.56,0,0,1,60.31,40.2ZM56.75,32a3.31,3.31,0,0,0-1-2.42,3.24,3.24,0,0,0-1.13-.69,4,4,0,0,0-1.41-.24,3.9,3.9,0,0,0-1.39.24,3.16,3.16,0,0,0-1.11.69A3.23,3.23,0,0,0,50,30.6,3.39,3.39,0,0,0,49.68,32V32a3.19,3.19,0,0,0,1,2.44,3.6,3.6,0,0,0,2.52.92,3.8,3.8,0,0,0,1.41-.25,3.24,3.24,0,0,0,1.13-.69,3.15,3.15,0,0,0,.74-1.07A3.32,3.32,0,0,0,56.75,32Z"/><path class="cls-2" d="M73.57,40V37.9a8,8,0,0,1-.77.88,4.78,4.78,0,0,1-.93.75,4.38,4.38,0,0,1-1.14.52,4.72,4.72,0,0,1-1.41.19,4.62,4.62,0,0,1-3.64-1.43,5.72,5.72,0,0,1-1.29-4v-9.4h4.12v8.08a3.29,3.29,0,0,0,.65,2.21,2.33,2.33,0,0,0,1.84.74,2.45,2.45,0,0,0,1.88-.74,3.15,3.15,0,0,0,.69-2.21V25.45h4.12V40Z"/><path class="cls-2" d="M90.56,40V31.89a3.28,3.28,0,0,0-.65-2.2A2.33,2.33,0,0,0,88.07,29a2.48,2.48,0,0,0-1.89.74,3.14,3.14,0,0,0-.69,2.2V40H81.38V25.45h4.11v2.08a8.15,8.15,0,0,1,.78-.89,5.66,5.66,0,0,1,.93-.75,4.57,4.57,0,0,1,1.14-.52,5,5,0,0,1,1.41-.19,4.63,4.63,0,0,1,3.64,1.44,5.69,5.69,0,0,1,1.29,3.95V40Z"/><path class="cls-2" d="M105,40a6.58,6.58,0,0,1-1.81.23,6.48,6.48,0,0,1-1.72-.21,3,3,0,0,1-1.33-.71A3.5,3.5,0,0,1,99.24,38a5.94,5.94,0,0,1-.31-2.09V29H97.2V25.45h1.73V21.74h4.12v3.71h3.41V29h-3.41v6.2c0,.94.44,1.41,1.33,1.41a4.15,4.15,0,0,0,2-.52v3.31A7.17,7.17,0,0,1,105,40Z"/><path class="cls-2" d="M118,40V38.4a5.62,5.62,0,0,1-1.81,1.34,5.94,5.94,0,0,1-2.58.5,6.39,6.39,0,0,1-1.93-.28,4.5,4.5,0,0,1-1.59-.85,4.12,4.12,0,0,1-1.07-1.4,4.43,4.43,0,0,1-.39-1.91v0a4.54,4.54,0,0,1,.43-2.06,3.93,3.93,0,0,1,1.21-1.44,5.38,5.38,0,0,1,1.84-.85,9.17,9.17,0,0,1,2.37-.28,10.06,10.06,0,0,1,1.94.16,12.73,12.73,0,0,1,1.61.43v-.24a2.45,2.45,0,0,0-.79-2,3.48,3.48,0,0,0-2.33-.68,9.44,9.44,0,0,0-2.1.21,14.05,14.05,0,0,0-1.91.58l-1-3.14a15,15,0,0,1,2.5-.84,12.87,12.87,0,0,1,3.14-.33q3.39,0,4.93,1.65A6.49,6.49,0,0,1,122,31.55V40Zm.08-5.85a6.45,6.45,0,0,0-2.63-.54,3.68,3.68,0,0,0-2.08.51,1.69,1.69,0,0,0-.76,1.49v.06a1.54,1.54,0,0,0,.62,1.3,2.67,2.67,0,0,0,1.63.46,3.64,3.64,0,0,0,2.34-.7,2.25,2.25,0,0,0,.88-1.85Z"/><path class="cls-3" d="M130.45,40a3.8,3.8,0,0,1-1.33-.81,4,4,0,0,1-.87-1.24,3.76,3.76,0,0,1-.31-1.57,4.81,4.81,0,0,1,1.82-3.87,5.85,5.85,0,0,1,2-1,8.83,8.83,0,0,1,2.47-.33,12.29,12.29,0,0,1,2.18.17,14.42,14.42,0,0,1,1.91.48l.05-.19c0-.17.08-.33.11-.51a2.52,2.52,0,0,0,.06-.58,1.51,1.51,0,0,0-.6-1.23,3.53,3.53,0,0,0-2.14-.48,8.94,8.94,0,0,0-2.07.24,10.38,10.38,0,0,0-1.8.55l-.65-3.25a14.27,14.27,0,0,1,2.49-.75,14.79,14.79,0,0,1,2.9-.28,7,7,0,0,1,4.41,1.17,4,4,0,0,1,1.47,3.3,6.74,6.74,0,0,1-.1,1.11c-.06.36-.14.72-.23,1.08l-2.14,8h-4l.43-1.68a6,6,0,0,1-1.95,1.45,5.52,5.52,0,0,1-2.38.5A4.89,4.89,0,0,1,130.45,40Zm4.71-2.76a4,4,0,0,0,1.07-.64,4.12,4.12,0,0,0,.84-.93,3.85,3.85,0,0,0,.52-1.13l.1-.38a8,8,0,0,0-1.24-.36,7,7,0,0,0-1.47-.15,3.46,3.46,0,0,0-2.12.61,2,2,0,0,0-.83,1.66,1.37,1.37,0,0,0,.52,1.11,2.06,2.06,0,0,0,1.38.44A3.4,3.4,0,0,0,135.16,37.2Z"/><path class="cls-4" d="M147.85,25.45H152L148.07,40H144Zm4.42-6.39,3.47,1.54-4.37,3.26h-3.46Z"/></g></g></svg>